PathFileType	4	(X/Y/Z)	/home/abdul/Desktop/myosuite/custom_workspace/IK/output/S11_12_1.trc
DataRate	CameraRate	NumFrames	NumMarkers	Units	OrigDataRate	OrigDataStartFrame	OrigNumFrames
200.0	200.0	45	3	mm	200.0	194	1546
Frame#	Time	V_Shoulder			V_Elbow			V_Wrist		
		X1	Y1	Z1	X2	Y2	Z2	X3	Y3	Z3

194	0.965	-97.15009975268954	559.9739663629272	283.2939283568214	-281.3958931400763	386.5969567332111	42.98976455499	-157.3908541299166	163.57515019431938	74.06669110705843
195	0.97	-96.99373898825837	559.5718522064512	283.31842508338985	-281.16411567176834	386.2883991487278	42.93298384708488	-156.90029499356106	163.14928364315125	73.98372937301978
196	0.975	-96.83818365721383	559.1717248146819	283.342592101447	-280.93095768608026	385.98036169822444	42.874663827967595	-156.41450227321008	162.72880137748677	73.90179597043482
197	0.98	-96.68347057316396	558.7736240823965	283.36641050609455	-280.69640254805506	385.67283664506886	42.81473590051503	-155.9334233620876	162.31370510413583	73.82076655756256
198	0.985	-96.52963660659798	558.3775843438524	283.3898593385871	-280.4604404479825	385.3658203030468	42.75312994915039	-155.45700510460932	161.90399267946088	73.74050240871844
199	0.99	-96.37671862937354	557.983634429053	283.4129157024802	-280.22306882837665	385.0593132392138	42.689774798767225	-154.9851946750838	161.49965809550832	73.66085119611103
200	0.995	-96.22475345838215	557.5917977326035	283.4355548836652	-279.9842927797499	384.75332044977085	42.62459867438016	-154.51794042371682	161.10069147159123	73.58164780699435
201	1.0	-96.07377779851299	557.2020922948514	283.4577504739138	-279.7441254023522	384.44785150747225	42.55752965932978	-154.05519268563	160.7070790514946	73.50271519238034
202	1.005	-95.92382818503808	556.8145308949832	283.4794744975555	-279.5025881311987	384.142920679205	42.488496149910475	-153.59690454885876	160.31880320644746	73.42386524353829
203	1.01	-95.77494092554205	556.4291211557179	283.5006975409062	-279.25971102188635	383.8385470125262	42.417427304342446	-153.14303257756825	159.93584244397903	73.344899692512
204	1.015	-95.6271520415221	556.0458656592145	283.52138888407	-279.01553299490035	383.5347543901114	42.34425348407182	-152.69353748702102	159.55817142274756	73.26561103290906
205	1.02	-95.48049720978439	555.6647620737867	283.5415166347318	-278.7701020363343	383.2315715512479	42.26890668545652	-152.2483847671385	159.18576097340613	73.18578345725963
206	1.025	-95.33501170376489	555.285803290994	283.5610478635626	-278.52347535319603	382.92903207970676	42.191320959978704	-151.80754525182613	158.8185781255437	73.10519380730297
207	1.03	-95.19073033490393	554.908977572659	283.57994874085995	-278.27571948174267	382.62717435754627	42.11143282121886	-151.37099563156926	158.45658614071564	73.02361253363893
208	1.035	-95.04768739420489	554.5342687073424	283.5981846740476	-278.02691034758203	382.32604148463656	42.02918163692989	-150.93871890716017	158.09974455155577	72.94080466127484
209	1.04	-94.90591659410855	554.1616561757893	283.61572044566304	-277.77713327659717	382.02568116394843	41.944510004662654	-150.51070478277413	157.74800920693954	72.85653075770772
210	1.045	-94.76545101081598	553.7911153248432	283.6325203514652	-277.52648295608424	381.72614555291887	41.857364109515565	-150.08694999698176	157.40133232314997	72.77054790030269
211	1.05	-94.62632302719375	553.4226175493172	283.64854833829753	-277.2750633458403	381.42749108147746	41.76769406270718	-149.66745859065537	157.05966254097822	72.6826106398625
212	1.055	-94.48856427639613	553.0561304812915	283.66376814134907	-277.02298753928056	381.1297782375868	41.67545421979909	-149.25224211110242	156.72294498867524	72.59247195742606
213	1.06	-94.35220558634005	552.691618186304	283.67814342046194	-276.77037757499204	380.8330713214025	41.580603477523866	-148.8413197521336	156.391121350657	72.49988421148501
214	1.065	-94.217276925169	552.3290413658917	283.6916378951357	-276.51736419945126	380.5374381693945	41.4831055482986	-148.43471843014544	156.06412994185342	72.4046000729675
215	1.07	-94.08380734784312	551.9683575659282	283.70421547789425	-276.2640865819264	380.24294984998596	41.38292921162681	-148.032472796666	155.7419057875817	72.30637344549987
216	1.075	-93.95182494399238	551.6095213902089	283.71584040567905	-276.0106919828698	379.9496803324671	41.28004854171158	-147.63462518817326	155.4243807088161	72.20496036862654
217	1.08	-93.82135678717054	551.252484718725	283.7264773689493	-275.75733537736755	379.65770613111624	41.17444311071961	-147.24122551434795	155.11148341272258	72.10011990183597
218	1.085	-93.69242888564808	550.8971969300694	283.7360916381712	-275.5041790354608	379.3671059266278	41.066098167249336	-146.85233108626545	154.80313958832147	71.99161498741131
219	1.09	-93.5650661348803	550.5436051274206	283.74464918739255	-275.2513920613827	379.07796016708676	40.95500478966699	-146.46800638635827	154.49927200714222	71.8792132902938
220	1.095	-93.43929227178876	550.1916543675502	283.7521168146061	-274.9991498939679	378.79035065085975	40.84116001408162	-146.08832278229553	154.19980062873452	71.7626880133125
221	1.1	-93.31512983099124	549.8412878923065	283.7584622586158	-274.74763377068507	378.5043600938835	40.72456693683407	-145.7133581872218	153.90464271090394	71.64181868629868
222	1.105	-93.19260010311599	549.4924473620317	283.76365431213156	-274.49703015792375	378.2200716839244	40.605234791475155	-145.34319666907646	153.61371292454396	71.51639192776128
223	1.11	-93.07172309533321	549.1450730903781	283.7676629308278	-274.2475301503231	377.9375686244634	40.48317900030585	-144.97792801197406	153.3269234729458	71.38620217795264
224	1.115	-92.95251749423632	548.7991042799937	283.77045933811473	-273.99932884207897	377.6569336709233	40.35842120064573	-144.61764723286245	153.04418421547268	71.25105240230128
225	1.12	-92.83500063120215	548.4544792585674	283.7720161253806	-273.75262467328776	377.37824866200066	40.23098924608581	-144.26245405689187	152.76540279549852	71.11075476432654
226	1.125	-92.71918845035731	548.1111357147213	283.77230734747917	-273.50761875449604	377.10159404889885	40.10091718306884	-143.91245235511894	152.49048477251773	70.96513126728253
227	1.13	-92.60509547927455	547.7690109332638	283.7713086132461	-273.26451417271727	376.8270484252761	39.968245203222665	-143.56774954833764	152.21933375834897	70.81401436390061
228	1.135	-92.49273480251942	547.4280420293206	283.7689971708444	-273.0235152822488	376.5546880607212	39.83301957195198	-143.2284559809719	151.95185155736445	70.65724753371495
229	1.14	-92.38211803816388	547.0881661808822	283.7653519877502	-272.7848269836833	376.28458644056207	39.69529253386896	-142.89468426908212	151.6879383106913	70.49468582756002
230	1.145	-92.27325531737826	546.7493208593149	283.760353825207	-272.54865399454536	376.0168138147818	39.555122195715434	-142.56654862662893	151.42749264434366	70.32619637892556
231	1.15	-92.16615526720882	546.4114440574065	283.7539853069887	-272.31520011500953	375.75143675878144	39.412572387497185	-142.2441641742048	151.17041182125692	70.15165888194161
232	1.155	-92.06082499664195	546.074474514529	283.746230982327	-272.0846674921617	375.48851774866955	39.26771250261518	-141.92764623448255	150.91659189720812	69.97096603584399
233	1.16	-91.95727008605017	545.7383519385197	283.7370773828777	-271.8572558862551	375.2281147536971	39.12061731783891	-141.6171096186465	150.66592788061848	69.78402395584115
234	1.165	-91.85549458010858	545.4030172238996	283.7265130736087	-271.63316194238655	374.97028084837325	38.971366794023595	-141.3126679080596	150.41831389624502	69.59075255036376
235	1.17	-91.75550098426298	545.0684126660691	283.71452869751744	-271.41257847097614	374.7150638467068	38.82004585852532	-141.01443273538584	150.17364335277802	69.39108586473274
236	1.175	-91.65729026482349	544.7344821711341	283.7011170140935	-271.19569374037405	374.4625059609152	38.6667441703167	-140.72251306932668	149.9318091143713	69.18497239132775
237	1.18	-91.56086185274889	544.4011714610397	283.6862729314651	-270.9826907848463	374.2126434868246	38.51155586885021	-140.43701450704802	149.6927036761387	68.97237534637793
238	1.185	-91.46621365117846	544.0684282737069	283.6699935321813	-270.77374673110273	373.96550651806217	38.35457930775661	-140.15803857826853	149.45621934365778	68.7532729135312
